<mxfile host="app.diagrams.net" modified="2023-03-30T14:29:36.480Z" agent="Mozilla/5.0 (Windows NT 10.0; Win64; x64) AppleWebKit/537.36 (KHTML, like Gecko) Chrome/111.0.0.0 Safari/537.36" version="21.1.2" etag="CZiCJKMB7385oVgJkqkO" type="github">
  <diagram name="第 1 页" id="EbQdvqsfNdmia6hWxJnZ">
    <mxGraphModel>
      <root>
        <mxCell id="0" />
        <mxCell id="1" parent="0" />
      </root>
    </mxGraphModel>
  </diagram>
</mxfile>
